<?xml version="1.0" encoding="UTF-8" standalone="no"?>
<!-- Created with Inkscape (http://www.inkscape.org/) -->

<svg
   width="73.064247mm"
   height="70.615135mm"
   viewBox="0 0 73.064245 70.615134"
   version="1.1"
   id="svg1"
   xml:space="preserve"
   inkscape:export-filename="logotipo.svg"
   inkscape:export-xdpi="96"
   inkscape:export-ydpi="96"
   sodipodi:docname="logotipo.svg"
   inkscape:version="1.3 (0e150ed6c4, 2023-07-21)"
   xmlns:inkscape="http://www.inkscape.org/namespaces/inkscape"
   xmlns:sodipodi="http://sodipodi.sourceforge.net/DTD/sodipodi-0.dtd"
   xmlns="http://www.w3.org/2000/svg"
   xmlns:svg="http://www.w3.org/2000/svg"><sodipodi:namedview
     id="namedview1"
     pagecolor="#ffffff"
     bordercolor="#000000"
     borderopacity="0.25"
     inkscape:showpageshadow="2"
     inkscape:pageopacity="0.0"
     inkscape:pagecheckerboard="0"
     inkscape:deskcolor="#d1d1d1"
     inkscape:document-units="mm"
     inkscape:zoom="1.1798089"
     inkscape:cx="491.60503"
     inkscape:cy="525.50883"
     inkscape:window-width="2560"
     inkscape:window-height="1566"
     inkscape:window-x="-11"
     inkscape:window-y="-11"
     inkscape:window-maximized="1"
     inkscape:current-layer="layer1" /><defs
     id="defs1" /><g
     inkscape:label="Capa 1"
     inkscape:groupmode="layer"
     id="layer1"
     transform="translate(17.257664,-194.51756)"><path
       style="fill:#0c24f5;fill-opacity:1;stroke:none;stroke-width:0.245231;stroke-linecap:round;stroke-linejoin:round;paint-order:fill markers stroke"
       d="m -17.142139,195.97814 c 0.731133,12.84616 -3.00554,25.9254 6.790671,34.09338 4.8254311,3.09392 6.6104329,6.00308 18.2718096,4.76047 5.8580374,1.38907 11.9716174,-0.79944 18.2018024,-4.62046 l -5.880582,-4.27042 c -0.810003,2.96363 -3.08182,5.92725 -12.3912277,8.89088 -4.4682528,-2.12918 -5.0545278,-2.32361 -6.7980559,-3.69592 -7.449305,-5.86327 -8.5751329,-11.44452 -8.6380231,-19.38181 -0.03439,-4.34038 0.1102685,-9.38529 0.034554,-15.56609 z"
       id="path1"
       sodipodi:nodetypes="ccccccsscc" /><path
       style="fill:#ffffff;fill-opacity:1;stroke:#000000;stroke-width:0.24523;stroke-linecap:round;stroke-linejoin:round;stroke-dasharray:none;stroke-dashoffset:0;stroke-opacity:1;paint-order:fill markers stroke"
       d="m -4.089999,196.21027 v 7.52436 l 6.7323232,-0.099 -0.099005,7.96988 C 4.654833,202.04328 10.468439,197.84908 17.839553,195.91326 Z"
       id="path2"
       sodipodi:nodetypes="cccccc" /><path
       style="fill:#ffffff;fill-opacity:1;stroke:#000000;stroke-width:0.245231;stroke-linecap:round;stroke-linejoin:round;stroke-opacity:1;paint-order:fill markers stroke"
       d="m 2.8403329,216.40724 v 14.4547 l 5.494764,2.02959 5.0987451,-1.93059 -0.09901,-14.6032 z"
       id="path3" /><path
       style="fill:#308f51;fill-opacity:1;stroke:#308f51;stroke-width:0.245231;stroke-linecap:round;stroke-linejoin:round;stroke-opacity:1;paint-order:fill markers stroke"
       d="m 3.6818741,215.02118 9.6529619,-0.099 C 13.129133,205.66291 21.384156,197.5236 28.037041,196.6063 10.944248,194.30333 4.2682057,207.27638 3.6818741,215.02119 Z"
       id="path4"
       sodipodi:nodetypes="cccc" /><path
       style="fill:#308f51;fill-opacity:1;stroke:#308f51;stroke-width:0.245231;stroke-linecap:round;stroke-linejoin:round;stroke-opacity:1;paint-order:fill markers stroke"
       d="m 28.086545,196.6558 c 16.0219,4.60071 16.894419,15.60242 17.127821,20.74149 4.262694,1.72838 5.945155,4.51921 8.068886,7.12834 9.227002,-17.6945 -10.052886,-36.08259 -25.196707,-27.86983 z"
       id="path5"
       sodipodi:nodetypes="cccc" /><path
       style="fill:#64777b;fill-opacity:1;stroke:#64777b;stroke-width:0.245231;stroke-linecap:round;stroke-linejoin:round;stroke-opacity:1;paint-order:fill markers stroke"
       d="m 40.957163,226.35722 c 1.668354,-1.90191 2.379749,-4.44179 2.871137,-7.12834 8.977144,6.40351 12.537251,14.65239 9.504455,25.1472 0.198685,-6.50906 -1.350218,-12.81492 -12.375592,-18.01886 z"
       id="path6"
       sodipodi:nodetypes="cccc" /><path
       style="fill:#64777b;fill-opacity:1;stroke:#64777b;stroke-width:0.245231;stroke-linecap:round;stroke-linejoin:round;stroke-opacity:1;paint-order:fill markers stroke"
       d="m 53.382259,244.52459 c 4.772196,18.4943 -21.977303,26.6753 -33.265598,15.19723 l 5.197751,-5.44526 c 14.505207,5.71615 23.888993,-3.71052 28.067847,-9.75197 z"
       id="path7"
       sodipodi:nodetypes="cccc" /><path
       style="fill:#4c4e51;fill-opacity:1;stroke:none;stroke-width:0.245231;stroke-linecap:round;stroke-linejoin:round;paint-order:fill markers stroke"
       d="m 22.195762,225.26817 17.820853,0.099 v -0.79204 h -0.84154 v -1.98009 l -16.187277,-0.14851 -0.0495,2.0296 h -0.742536 z"
       id="path8" /><path
       style="fill:#4c4e51;fill-opacity:1;stroke:none;stroke-width:0.245231;stroke-linecap:round;stroke-linejoin:round;paint-order:fill markers stroke"
       d="m 29.175598,225.46618 c 0.887378,2.45813 3.044953,1.59418 3.613672,0"
       id="path9"
       sodipodi:nodetypes="cc" /><path
       style="fill:#4c4e51;fill-opacity:1;stroke:none;stroke-width:0.245231;stroke-linecap:round;stroke-linejoin:round;paint-order:fill markers stroke"
       d="m 20.017657,211.80352 h 5.989787 c 3.096139,-6.80776 8.62547,-3.90694 9.801472,0.099 l 5.890782,-0.099 -0.0495,-3.36616 h -2.128602 l -0.0495,-1.28706 h -2.52462 l -0.099,-1.68308 -2.574124,0.099 h -6.831327 -2.524623 l 0.0495,1.43557 -2.821637,-0.0495 v 1.53457 l -2.32661,-0.0495 z"
       id="path10"
       sodipodi:nodetypes="ccccccccccccccccc" /><path
       style="fill:#4c4e51;fill-opacity:1;stroke:none;stroke-width:0.245231;stroke-linecap:round;stroke-linejoin:round;paint-order:fill markers stroke"
       d="m 27.542018,205.51672 c 1.265892,-3.0962 4.594946,-4.27058 6.682819,-0.099"
       id="path11"
       sodipodi:nodetypes="cc" /><path
       style="fill:#4c4e51;fill-opacity:1;stroke:none;stroke-width:0.245231;stroke-linecap:round;stroke-linejoin:round;paint-order:fill markers stroke"
       d="M 23.977847,221.65449 37.838513,221.803 C 33.343891,202.2719 27.349056,206.07732 23.977847,221.65449 Z"
       id="path12"
       sodipodi:nodetypes="ccc" /><path
       style="fill:#ffffff;fill-opacity:1;stroke:#000000;stroke-width:0.245231;stroke-linecap:round;stroke-linejoin:round;stroke-opacity:1;paint-order:fill markers stroke"
       d="m 19.027608,203.63563 6.2373,0.099 0.0495,-4.99974 c -1.714275,0.61672 -3.41433,1.1955 -6.286804,4.90074 z"
       id="path13"
       sodipodi:nodetypes="cccc" /></g></svg>
